<svg xmlns="http://www.w3.org/2000/svg" viewBox="0 0 960 849.13"><defs><style>.cls-1{fill:#e95801;}.cls-2{fill:#fff;fill-rule:evenodd;}</style></defs><title>Ресурс 7</title><g id="Слой_2" data-name="Слой 2"><g id="Layer_1" data-name="Layer 1"><rect class="cls-1" width="960" height="849.13"/><path class="cls-2" d="M208.13,399.07a24.74,24.74,0,0,1,7.09-16.87l21-21.12V378.7a26.85,26.85,0,0,1-7.07,17.48l-21.05,21.15ZM236.25,483,215.1,461.89c-4.19-4.19-11.47-7.06-17.47-7.06H180l21.13,21A24.75,24.75,0,0,0,218,483ZM196,442.47l12.14,12.36V426.7a24.85,24.85,0,0,0-6.74-15.91l-12-12.21V426.7a24.9,24.9,0,0,0,6.6,15.77"/><path class="cls-2" d="M721.68,414.65h10.05v40.18H721.68V437.55H702v17.28H691.93V414.65H702v14.86h19.69Zm-50.4,0H646v8.05h23.29a4,4,0,0,1,4,4v3.58H655.19a12.07,12.07,0,0,0-12,12.08v.42a12.07,12.07,0,0,0,12,12.05h28.13V426.7a12.06,12.06,0,0,0-12-12.05m2,32.14H657.23a4,4,0,0,1-4-4v-.42a4,4,0,0,1,4-4h16.08Zm81-9.24H750.6v17.28H740.54V414.65H750.6v14.86h3.68l13.28-14.86h11.3l-17,18.92L780,454.83H767.43Zm-133.1-19.46H602.54V406.61h30.94v-8h-41v56.25h28.66a16.54,16.54,0,0,0,16.56-16.53v-3.66a16.57,16.57,0,0,0-16.56-16.55m5.24,20.21a8.49,8.49,0,0,1-8.48,8.49H602.54V426.14h15.38a8.48,8.48,0,0,1,8.48,8.5ZM352.78,426.7v16.08a4,4,0,0,0,4,4h19.85v8H354.78a12.08,12.08,0,0,1-12-12.05V426.7a12.07,12.07,0,0,1,12-12.05h21.87v8.05H356.8a4,4,0,0,0-4,4M410,414.65H393.92a12.07,12.07,0,0,0-12.05,12.05v16.08a12.08,12.08,0,0,0,12.05,12.05H410a12.08,12.08,0,0,0,12.07-12.05V426.7A12.07,12.07,0,0,0,410,414.65m2,28.13a4,4,0,0,1-4,4H396a4,4,0,0,1-4-4V426.7a4,4,0,0,1,4-4H408a4,4,0,0,1,4,4Zm-87.92-28.13H313a12.06,12.06,0,0,0-7,2.27v-6.3a4,4,0,0,1,4-4h21.3v-8H308a12.06,12.06,0,0,0-12,12v32.16a12.07,12.07,0,0,0,12,12.05h16.07a12.07,12.07,0,0,0,12.06-12.05V426.7a12.06,12.06,0,0,0-12.06-12.05m2,28.13a4,4,0,0,1-4,4H310a4,4,0,0,1-4-4V426.69a4,4,0,0,1,4-4h12.06a4,4,0,0,1,4,4ZM540.3,414.65h35.46v8.05H563.05v32.13H553V422.7H540.3ZM259,398.58l-22.78,56.25h12.39l4.3-12.05h24.4l4.42,12.05h12L271,398.58Zm-3.21,36.16L265,409l9.39,25.71Zm187.49-20.09h25.6v40.17h-10V422.7H445.31a4,4,0,0,0-4,4v16.08a12.08,12.08,0,0,1-12.06,12.05H426v-8h1.21a4,4,0,0,0,4-4V426.7a12.06,12.06,0,0,1,12.06-12.05m81.28,0-15.36,0a12.07,12.07,0,0,0-12.05,12.05v2.81h-8.44V414.65H478.69v40.18h10.05V437.55h8.44v5.23a12.08,12.08,0,0,0,12.05,12.05l15.36,0a12.08,12.08,0,0,0,12-12V426.67a12.08,12.08,0,0,0-12-12.06m2,28.14a4,4,0,0,1-4,4l-11.69,0a4,4,0,0,1-4-4V426.7a4,4,0,0,1,4-4l11.69,0a4,4,0,0,1,4,4Z"/></g></g></svg>