<svg xmlns="http://www.w3.org/2000/svg" viewBox="0 0 25.94 16"><defs><style>.cls-1{fill:#507299;}</style></defs><title>vk_1</title><g id="Слой_2" data-name="Слой 2"><g id="Layer_1" data-name="Layer 1"><path class="cls-1" d="M24.6,15.65H21.43c-2,0-2.45-.72-4.18-2.45-1.58-1.58-1.87-.72-1.87,1.59a1,1,0,0,1-1,1.15c-2.16,0-4.61.72-7.78-2.88A41.33,41.33,0,0,1,.11,1.54C-.18.67.11.38.83.38H4.14c1,0,1,.58,1.3,1.16,1.15,2.73,4.18,9.07,4.9,6.05.43-1.73.43-5.77-1.44-6.2-1.3-.29,1.44-2,5-1.15,1.3.29,1.3,1,1.3,1.87,0,3.46-.44,5.62.43,6.2s2.88-3.75,4-6.63C20,.82,20.13.38,21,.38h3.6c2.45,0,0,3.75-2.16,6.49-1.73,2.3-1.59,2.3.29,4.32C25.18,13.2,27.48,15.65,24.6,15.65Z"/></g></g></svg>